# xmcd
#
# Track frame offsets: 
#        150
#        23780
#        41498
#        64561
#        88185
#        107310
#        131216
#        156247
#        180296
#        201669
#        223607
#        248779
#        266919
#        291106
#        319231
#
# Disc length: 4661 seconds
#
# Revision: 4
# Processed by: cddbd v1.5.2PL0 Copyright (c) Steve Scherf et al.
# Submitted via: ExactAudioCopyFreeDBPlugin 1.0
#
DISCID=dd12330f
DTITLE=Various Artist - Hed Kandi 106: Twisted Disco [CD1]
DYEAR=2011
DGENRE=House
TTITLE0=Eric Prydz - Niton (The Reason) [Club Mix]
TTITLE1=Deadmau5 and Wolfgang Gartner - Animal Rights
TTITLE2=Swedish House Mafia - Miami 2 Ibiza [Instrumental]
TTITLE3=Mark Knight and Wolfgang Gartner - Conscindo
TTITLE4=Thomas Gold - Marsch Marsch
TTITLE5=Sandy Rivera and Rae - Hide U [Sandy Rivera's Club Mix]
TTITLE6=DNA feat. Rebecca Knight - In My Head [Original Mix]
TTITLE7=Joey Negro pres. Akabu - Sax My Bitch Up [Ron May Remix]
TTITLE8=Chris Kaeser. StoneBridge and Anita Kelsey - Rescue Me [Original
TTITLE8=Mix]
TTITLE9=Syke'n'Sugarstarr and Jay Sebag - Like That Sound [SESA Remix]
TTITLE10=Alex Armes vs. Prok and Fitch - After The World
TTITLE11=David Tort, Thomas Gold and David Gausa - Areena [Dirty South M
TTITLE11=ix]
TTITLE12=Paul Thomas and Jerome Isma-Ae - Tomorrow
TTITLE13=Martijn Ten Velden vs. Red Carpet - Together Alright [Martijn
TTITLE13=Ten Velden 2010 Club Mix]
TTITLE14=Adam K feat. Naan - Wake Up [Club Mix]
EXTD=
EXTT0=
EXTT1=
EXTT2=
EXTT3=
EXTT4=
EXTT5=
EXTT6=
EXTT7=
EXTT8=
EXTT9=
EXTT10=
EXTT11=
EXTT12=
EXTT13=
EXTT14=
PLAYORDER=
